<svg width="24" height="24" viewBox="0 0 24 24" fill="none" xmlns="http://www.w3.org/2000/svg">
<rect x="2.27051" y="2.27148" width="19.5" height="19.5" rx="2" fill="#FF2F43"/>
<path d="M12.0004 3.75C11.5945 3.75 11.2232 4.095 11.2504 4.5L11.6254 14.625C11.6254 14.7245 11.6649 14.8198 11.7353 14.8902C11.8056 14.9605 11.901 15 12.0004 15C12.0999 15 12.1953 14.9605 12.2656 14.8902C12.3359 14.8198 12.3754 14.7245 12.3754 14.625L12.7504 4.5C12.7776 4.095 12.4064 3.75 12.0004 3.75Z" stroke="white" stroke-linecap="round" stroke-linejoin="round"/>
<path d="M12 20.25C12.4142 20.25 12.75 19.9142 12.75 19.5C12.75 19.0858 12.4142 18.75 12 18.75C11.5858 18.75 11.25 19.0858 11.25 19.5C11.25 19.9142 11.5858 20.25 12 20.25Z" stroke="white" stroke-linecap="round" stroke-linejoin="round"/>
</svg>
