<svg width="26" height="26" viewBox="0 0 26 26" fill="none" xmlns="http://www.w3.org/2000/svg">
<rect width="26" height="26" fill="#181818"/>
<g id="Edit Task">
<rect width="1440" height="1088" transform="translate(-522 -980)" fill="#FAFAFB"/>
<g id="Content">
<rect x="-210" y="-884" width="1103" height="968" rx="24" fill="white"/>
<g id="Task">
<g clip-path="url(#clip0_7856_50505)">
<rect x="-186" y="-67" width="1055" height="127" rx="16" fill="white"/>
<g id="Frame 1984077976">
<g id="Frame 1984077977">
<g id="row">
<rect x="-9.5" y="-10.5" width="231" height="47" rx="11.5" stroke="#E7E7E7"/>
<g id="Frame 1000008000">
<g id="Frame">
<g id="Group">
<path id="Vector" d="M6.5 0C5.60625 0 4.875 0.73125 4.875 1.625V24.375C4.875 25.2687 5.60625 26 6.5 26H22.75C23.6437 26 24.375 25.2687 24.375 24.375V6.5L17.875 0H6.5Z" fill="#E2E5E7"/>
<path id="Vector_2" d="M19.5 6.5H24.375L17.875 0V4.875C17.875 5.76875 18.6062 6.5 19.5 6.5Z" fill="#B0B7BD"/>
<path id="Vector_3" d="M24.375 11.375L19.5 6.5H24.375V11.375Z" fill="#CAD1D8"/>
<path id="Vector_4" d="M21.125 21.125C21.125 21.5719 20.7594 21.9375 20.3125 21.9375H2.4375C1.99062 21.9375 1.625 21.5719 1.625 21.125V13C1.625 12.5531 1.99062 12.1875 2.4375 12.1875H20.3125C20.7594 12.1875 21.125 12.5531 21.125 13V21.125Z" fill="#F15642"/>
<path id="Vector_5" d="M5.16699 15.3945C5.16699 15.18 5.33599 14.946 5.60818 14.946H7.10887C7.95387 14.946 8.71437 15.5115 8.71437 16.5954C8.71437 17.6224 7.95387 18.1944 7.10887 18.1944H6.02418V19.0524C6.02418 19.3384 5.84218 19.5001 5.60818 19.5001C5.39368 19.5001 5.16699 19.3384 5.16699 19.0524V15.3945ZM6.02418 15.7642V17.3827H7.10887C7.54437 17.3827 7.88887 16.9984 7.88887 16.5954C7.88887 16.1412 7.54437 15.7642 7.10887 15.7642H6.02418ZM9.98674 19.5001C9.77224 19.5001 9.53824 19.3831 9.53824 19.0979V15.4075C9.53824 15.1744 9.77224 15.0045 9.98674 15.0045H11.4744C14.4433 15.0045 14.3783 19.5001 11.5329 19.5001H9.98674ZM10.3962 15.7975V18.7079H11.4744C13.2286 18.7079 13.3066 15.7975 11.4744 15.7975H10.3962ZM15.4313 15.8495V16.8822H17.088C17.322 16.8822 17.556 17.1162 17.556 17.3429C17.556 17.5574 17.322 17.7329 17.088 17.7329H15.4313V19.0971C15.4313 19.3246 15.2696 19.4993 15.0421 19.4993C14.7561 19.4993 14.5814 19.3246 14.5814 19.0971V15.4067C14.5814 15.1735 14.7569 15.0037 15.0421 15.0037H17.3228C17.6088 15.0037 17.7778 15.1735 17.7778 15.4067C17.7778 15.6147 17.6088 15.8487 17.3228 15.8487H15.4313V15.8495Z" fill="white"/>
<path id="Vector_6" d="M20.3125 21.9375H4.875V22.75H20.3125C20.7594 22.75 21.125 22.3844 21.125 21.9375V21.125C21.125 21.5719 20.7594 21.9375 20.3125 21.9375Z" fill="#CAD1D8"/>
</g>
</g>
</g>
</g>
</g>
</g>
</g>
<rect x="-185.5" y="-66.5" width="1054" height="126" rx="15.5" stroke="#E7E7E7"/>
</g>
</g>
</g>
<defs>
<clipPath id="clip0_7856_50505">
<rect x="-186" y="-67" width="1055" height="127" rx="16" fill="white"/>
</clipPath>
</defs>
</svg>
